<svg width="22" height="22" viewBox="0 0 22 22" fill="none" xmlns="http://www.w3.org/2000/svg">
<path fill-rule="evenodd" clip-rule="evenodd" d="M20.1668 11.0007C20.1668 16.0634 16.0629 20.1673 11.0002 20.1673C5.93741 20.1673 1.8335 16.0634 1.8335 11.0007C1.8335 5.9379 5.93741 1.83398 11.0002 1.83398C16.0629 1.83398 20.1668 5.9379 20.1668 11.0007ZM15.413 8.78323C15.4829 8.68525 15.5329 8.57444 15.56 8.45715C15.5871 8.33985 15.5909 8.21837 15.571 8.09963C15.5512 7.98088 15.5082 7.86721 15.4444 7.76509C15.3807 7.66298 15.2974 7.57442 15.1994 7.50448C15.1014 7.43454 14.9906 7.38459 14.8733 7.35747C14.756 7.33036 14.6345 7.32661 14.5158 7.34644C14.3971 7.36627 14.2834 7.4093 14.1813 7.47306C14.0792 7.53683 13.9906 7.62008 13.9207 7.71807L9.96616 13.2547L7.98158 11.2692C7.80869 11.1023 7.57714 11.0099 7.3368 11.012C7.09645 11.014 6.86654 11.1104 6.69658 11.2804C6.52662 11.4504 6.43022 11.6803 6.42813 11.9206C6.42604 12.161 6.51844 12.3925 6.68541 12.5654L9.43541 15.3154C9.52955 15.4094 9.64302 15.4818 9.76794 15.5275C9.89287 15.5732 10.0262 15.5912 10.1588 15.5803C10.2914 15.5693 10.42 15.5296 10.5357 15.4639C10.6514 15.3982 10.7514 15.3081 10.8287 15.1999L15.413 8.78323Z" fill="#0068FE"/>
</svg>
