<svg width="16" height="16" viewBox="0 0 16 16" fill="none" xmlns="http://www.w3.org/2000/svg">
<g id="&#237;&#151;&#172;&#236;&#138;&#164;_&#236;&#138;&#164;&#237;&#143;&#172;&#236;&#184;&#160;">
<path id="Vector" d="M3.39843 3.47742C3.85891 3.46812 4.4113 3.38622 4.77814 3.72776C4.88663 3.82875 4.97358 3.95334 5.01929 4.09511C5.17847 4.58903 5.05814 5.83608 5.08322 6.42137C5.08944 6.56651 5.12158 6.70837 5.23452 6.80869C5.31054 6.87619 5.4045 6.90706 5.5041 6.91783C5.78878 6.94862 6.08024 6.93298 6.36593 6.93087L7.56822 6.92879L9.49352 6.92861C9.84147 6.92854 10.1941 6.93114 10.5417 6.92322C10.6424 6.91425 10.8169 6.90476 10.8957 6.84201C11.1422 6.64553 11.0853 6.36434 11.0835 6.08669L11.0791 5.0164C11.0778 4.57819 11.0261 4.12087 11.346 3.77019C11.6625 3.4232 12.0848 3.47919 12.5052 3.47159C12.8481 3.46539 13.1639 3.47715 13.4262 3.72734C13.6442 3.93059 13.7276 4.20122 13.7361 4.49479C13.7382 4.98615 13.7349 5.48301 13.7353 5.97573L13.7358 9.18683L13.7359 10.9511C13.7359 11.2482 13.7509 11.5948 13.7215 11.8865C13.6716 12.3802 13.2682 12.7112 12.779 12.7272C12.356 12.7251 11.8141 12.8047 11.4602 12.5352C11.0287 12.2065 11.0788 11.6629 11.0798 11.1795L11.0846 10.1733C11.0861 9.9514 11.1212 9.70295 10.9739 9.52589C10.9017 9.43915 10.786 9.37298 10.6748 9.3697C10.4297 9.36245 10.1756 9.36428 9.93075 9.36419L8.49541 9.3639L6.7001 9.36298C6.34166 9.3619 5.9775 9.35619 5.61946 9.36654C5.51752 9.37795 5.37496 9.37025 5.29196 9.43309C5.03571 9.62711 5.08382 9.94829 5.08675 10.2421L5.0918 11.1372C5.0931 11.4291 5.10879 11.7125 5.04993 12.0021C4.97293 12.407 4.60557 12.6933 4.2043 12.7238C4.06097 12.7346 3.90536 12.7252 3.76075 12.7285C3.3965 12.737 3.03597 12.7418 2.74464 12.4858C2.552 12.3165 2.45693 12.0664 2.43799 11.814C2.4291 11.3663 2.4345 10.9002 2.43533 10.4509L2.43635 7.73554C2.43016 6.96092 2.42968 6.18623 2.43491 5.41159C2.43482 5.05251 2.42878 4.65622 2.44261 4.29786C2.44844 4.14639 2.57263 3.88854 2.67939 3.77775C2.88335 3.56611 3.11571 3.49423 3.39843 3.47742Z" fill="currentColor"/>
<path id="Vector_2" d="M1.39242 5.07003C1.46655 5.05981 1.63265 5.07312 1.70785 5.08637C1.97934 5.13421 2.01941 5.37326 2.0256 5.61014C2.03454 5.95206 2.02938 6.29996 2.02882 6.64421L2.02279 8.71037L2.02534 9.89851C2.03026 10.7109 2.18854 11.3937 1.05082 11.0957C0.184225 10.7265 0.316607 10.044 0.317083 9.24357L0.316449 7.75703L0.316199 6.66409C0.316188 6.46106 0.307691 6.12718 0.340583 5.93612C0.374911 5.74376 0.461041 5.56442 0.589704 5.41739C0.818819 5.15481 1.05949 5.09239 1.39242 5.07003Z" fill="currentColor"/>
<path id="Vector_3" d="M14.4367 5.08281C15.1383 5.00108 15.7109 5.27769 15.8234 6.03826C15.8597 6.28303 15.8434 6.53961 15.8429 6.78797L15.8423 7.93305L15.8431 9.31801C15.8431 9.97919 15.9436 10.4991 15.3759 10.9498C15.0647 11.1602 14.457 11.2925 14.188 10.9609C14.1119 10.6987 14.1413 9.94173 14.1413 9.63931L14.1415 7.84425L14.1408 6.32781C14.1404 6.03683 14.1372 5.74583 14.1445 5.45495C14.1498 5.24128 14.2463 5.1523 14.4367 5.08281Z" fill="currentColor"/>
</g>
</svg>
