<svg width="30" height="30" viewBox="0 0 30 30" fill="none" xmlns="http://www.w3.org/2000/svg">
<path d="M6.3729 6.52065C7.23631 6.50322 8.27204 6.34964 8.95988 6.99004C9.16328 7.17939 9.32632 7.413 9.41201 7.67881C9.71049 8.60492 9.48488 10.9431 9.5319 12.0406C9.54356 12.3127 9.60382 12.5787 9.81558 12.7668C9.95811 12.8933 10.1343 12.9512 10.321 12.9714C10.8548 13.0292 11.4013 12.9998 11.937 12.9959L14.1913 12.992L17.8012 12.9916C18.4536 12.9915 19.1148 12.9964 19.7665 12.9815C19.9554 12.9647 20.2826 12.9469 20.4302 12.8293C20.8924 12.4609 20.7859 11.9336 20.7824 11.413L20.7741 9.40625C20.7717 8.58459 20.6747 7.72712 21.2746 7.06959C21.868 6.41899 22.6599 6.52396 23.4481 6.50972C24.0911 6.49809 24.6831 6.52015 25.1749 6.98925C25.5838 7.37035 25.7402 7.87777 25.756 8.42823C25.7599 9.34953 25.7538 10.2811 25.7546 11.205L25.7554 17.2258L25.7557 20.5339C25.7557 21.0909 25.7838 21.7408 25.7286 22.2877C25.6352 23.2134 24.8788 23.8339 23.9615 23.8639C23.1683 23.86 22.1523 24.0093 21.4888 23.5039C20.6797 22.8876 20.7736 21.8683 20.7754 20.962L20.7844 19.0754C20.7873 18.6594 20.8532 18.1935 20.5768 17.8615C20.4415 17.6989 20.2246 17.5748 20.016 17.5687C19.5565 17.5551 19.0801 17.5585 18.621 17.5583L15.9297 17.5578L12.5635 17.5561C11.8915 17.5541 11.2087 17.5433 10.5373 17.5628C10.3462 17.5841 10.0789 17.5697 9.92327 17.6875C9.44281 18.0513 9.53301 18.6535 9.53852 19.2044L9.54798 20.8827C9.55041 21.4301 9.57983 21.9614 9.46947 22.5044C9.32509 23.2636 8.63629 23.8005 7.88392 23.8576C7.61518 23.8779 7.32341 23.8602 7.05227 23.8665C6.3693 23.8824 5.6933 23.8914 5.14706 23.4114C4.78586 23.094 4.60759 22.6249 4.57208 22.1517C4.55541 21.3123 4.56555 20.4383 4.5671 19.5959L4.56901 14.5046C4.5574 13.0522 4.5565 11.5997 4.56631 10.1472C4.56613 9.47395 4.55483 8.73089 4.58075 8.05897C4.59168 7.77497 4.82453 7.29151 5.02472 7.08377C5.40713 6.68694 5.8428 6.55217 6.3729 6.52065Z" fill="currentColor"/>
<path d="M2.61091 9.50679C2.7499 9.48763 3.06134 9.51259 3.20234 9.53743C3.71138 9.62714 3.78652 10.0754 3.79813 10.5195C3.81488 11.1606 3.80522 11.8129 3.80416 12.4584L3.79285 16.3324L3.79763 18.5602C3.80686 20.0834 4.10363 21.3636 1.9704 20.8049C0.345545 20.1126 0.59376 18.833 0.594653 17.3322L0.593464 14.5449L0.592995 12.4957C0.592974 12.115 0.577043 11.489 0.638716 11.1307C0.703081 10.77 0.864574 10.4338 1.10582 10.1581C1.53541 9.66575 1.98667 9.54871 2.61091 9.50679Z" fill="currentColor"/>
<path d="M27.0687 9.52978C28.3841 9.37653 29.4578 9.89517 29.6688 11.3213C29.7367 11.7802 29.7063 12.2613 29.7054 12.727L29.7042 14.874L29.7057 17.4708C29.7057 18.7105 29.894 19.6854 28.8297 20.5305C28.2462 20.9249 27.1068 21.173 26.6023 20.5513C26.4598 20.0597 26.5149 18.6403 26.5148 18.0732L26.5152 14.7075L26.5139 11.8642C26.5131 11.3186 26.5071 10.7729 26.5208 10.2275C26.5308 9.82691 26.7117 9.66007 27.0687 9.52978Z" fill="currentColor"/>
</svg>
